<?xml version="1.0" standalone="no"?>
<!DOCTYPE svg PUBLIC "-//W3C//DTD SVG 20010904//EN"
 "http://www.w3.org/TR/2001/REC-SVG-20010904/DTD/svg10.dtd">
<svg version="1.0" xmlns="http://www.w3.org/2000/svg"
 width="460.000000pt" height="460.000000pt" viewBox="0 0 460.000000 460.000000"
 preserveAspectRatio="xMidYMid meet">

<g transform="translate(0.000000,460.000000) scale(0.100000,-0.100000)"
fill="#000000" stroke="none">
<path d="M2388 4593 c6 -2 18 -2 25 0 6 3 1 5 -13 5 -14 0 -19 -2 -12 -5z"/>
<path d="M2210 4579 c-23 -5 -10 -5 35 -2 39 3 72 7 74 9 7 7 -72 2 -109 -7z"/>
<path d="M2473 4583 c9 -2 25 -2 35 0 9 3 1 5 -18 5 -19 0 -27 -2 -17 -5z"/>
<path d="M2550 4570 c34 -11 60 -11 35 0 -11 5 -29 8 -40 8 -16 0 -15 -2 5 -8z"/>
<path d="M2138 4563 c7 -3 16 -2 19 1 4 3 -2 6 -13 5 -11 0 -14 -3 -6 -6z"/>
<path d="M2628 4553 c7 -3 16 -2 19 1 4 3 -2 6 -13 5 -11 0 -14 -3 -6 -6z"/>
<path d="M2660 4546 c0 -3 24 -12 53 -22 28 -9 69 -26 89 -36 21 -11 43 -18
50 -16 6 2 -29 21 -80 41 -88 35 -112 42 -112 33z"/>
<path d="M2005 4530 c-3 -6 1 -7 9 -4 18 7 21 14 7 14 -6 0 -13 -4 -16 -10z"/>
<path d="M1929 4483 c-13 -16 -12 -17 4 -4 9 7 17 15 17 17 0 8 -8 3 -21 -13z"/>
<path d="M2060 4472 c-31 -15 -85 -57 -123 -94 -37 -38 -70 -68 -72 -68 -3 0
-5 13 -5 29 0 23 -5 30 -26 35 -15 4 -29 5 -31 2 -3 -3 6 -8 21 -12 44 -11 29
-24 -29 -24 -86 0 -145 -17 -259 -75 -58 -30 -111 -59 -118 -64 -7 -6 -47 -39
-88 -72 -95 -77 -194 -173 -268 -258 -31 -36 -60 -68 -63 -71 -14 -12 -129
-188 -129 -197 0 -6 -4 -13 -8 -15 -5 -1 -15 -15 -23 -29 -67 -127 -99 -191
-99 -200 0 -5 -8 -18 -18 -29 -31 -34 -139 -252 -171 -345 -52 -155 -109 -368
-141 -530 -7 -32 -16 -66 -21 -75 -4 -8 -17 -40 -29 -70 l-21 -55 5 45 c24
206 61 376 127 579 27 85 48 156 46 158 -7 7 -68 -171 -103 -300 -35 -132 -77
-361 -92 -507 -5 -47 -19 -123 -30 -170 -37 -149 -52 -224 -51 -245 1 -16 2
-15 8 5 4 15 10 -36 14 -125 7 -171 22 -242 66 -320 21 -37 27 -56 19 -61 -6
-4 -17 1 -24 11 -8 10 -16 16 -19 13 -9 -8 72 -72 124 -98 25 -12 54 -20 68
-17 19 3 34 -5 62 -33 20 -21 59 -50 87 -64 91 -50 127 -74 171 -117 59 -57
76 -92 77 -160 1 -45 -4 -63 -26 -97 -16 -23 -28 -43 -28 -46 0 -2 18 1 41 6
26 7 48 22 64 42 26 35 59 148 52 183 -2 13 -3 23 -1 23 2 0 18 -15 36 -34 67
-68 206 -127 265 -111 28 7 27 7 -14 20 -41 12 -123 69 -123 84 0 18 64 88
101 110 l40 24 23 -22 c43 -41 75 -192 57 -271 -5 -24 -8 -46 -7 -48 6 -5 47
69 61 112 8 23 15 55 15 73 0 17 4 33 10 35 5 2 -16 21 -47 43 -86 61 -137
106 -166 147 l-27 36 42 7 c83 13 163 60 190 108 8 16 7 17 -11 8 -31 -17 -94
-13 -144 9 -57 25 -112 88 -168 194 l-43 81 42 -34 c67 -53 189 -90 206 -63 3
5 -8 6 -24 4 -50 -7 -97 16 -144 71 -62 74 -75 104 -107 256 -22 98 -31 177
-36 284 -6 141 -5 150 16 177 11 16 21 32 21 35 0 3 23 54 51 113 90 188 151
327 209 473 44 108 53 130 88 214 36 85 70 178 78 215 7 28 10 15 15 -70 9
-150 56 -368 110 -519 11 -29 17 -56 14 -59 -3 -3 -36 -16 -73 -29 l-67 -24
69 6 c37 3 73 7 78 8 6 1 24 -32 42 -73 52 -122 92 -195 150 -273 54 -74 172
-197 187 -197 14 0 10 -113 -5 -164 -8 -26 -31 -67 -51 -91 -38 -47 -33 -54
22 -34 31 10 85 68 114 122 l16 30 15 -44 15 -44 6 76 c4 42 24 148 46 237 25
100 43 200 47 262 4 56 11 97 15 93 4 -4 17 -35 28 -68 48 -145 65 -187 121
-301 33 -67 60 -125 60 -129 0 -4 9 -18 20 -32 29 -37 25 -43 -20 -40 -33 3
-40 0 -40 -14 0 -10 -12 -22 -27 -28 l-28 -11 28 5 c15 3 38 3 51 -1 22 -5 23
-8 18 -75 -5 -73 11 -134 46 -174 23 -26 82 -59 82 -46 0 6 -6 11 -12 11 -15
0 -78 57 -78 70 0 5 13 16 29 24 26 14 30 14 41 1 7 -8 25 -15 40 -15 31 0 40
-14 33 -51 -4 -23 -2 -24 55 -25 53 -1 76 -9 228 -84 93 -46 179 -87 191 -93
19 -9 106 -143 206 -318 14 -25 34 -52 43 -60 10 -8 15 -9 11 -3 -4 6 7 22 24
35 17 13 37 37 45 54 l14 30 -5 -30 c-8 -46 -8 -83 -2 -168 5 -59 13 -88 34
-125 15 -26 31 -69 34 -97 l6 -50 2 43 c1 30 -8 61 -29 102 -17 33 -26 60 -22
60 5 0 12 20 15 45 4 25 14 60 23 78 33 64 115 141 192 181 l32 17 0 -40 c0
-98 -67 -206 -122 -198 -16 2 -28 0 -28 -4 0 -4 32 -7 72 -7 125 0 250 57 354
163 l61 62 12 -45 c12 -45 56 -112 73 -112 6 0 2 12 -8 28 -10 15 -21 47 -25
72 -9 58 6 159 25 179 13 12 16 12 16 2 0 -8 16 -47 35 -87 32 -66 44 -80 118
-136 82 -62 216 -142 224 -134 3 3 -10 12 -27 21 -18 9 -44 29 -58 43 -27 29
-82 111 -82 123 0 4 16 16 35 28 58 34 95 140 125 361 14 101 6 251 -21 400
-27 151 -26 159 22 210 50 52 59 76 59 148 l-1 57 -28 -55 c-32 -60 -88 -122
-78 -85 20 75 29 290 17 440 -9 115 -64 457 -76 477 -3 5 -3 8 0 8 9 0 63
-111 91 -186 22 -57 55 -184 69 -264 2 -14 3 108 2 270 -3 329 -2 324 -86 479
-65 120 -247 264 -329 260 -23 -2 -24 -2 -3 -6 12 -2 22 -8 22 -13 0 -5 6 -7
13 -4 21 8 111 -42 168 -94 65 -59 134 -156 123 -173 -5 -8 -3 -9 6 -4 10 6
12 3 8 -13 -4 -12 -3 -20 1 -17 5 2 13 -7 19 -20 6 -13 7 -27 3 -29 -5 -3 -19
17 -32 44 -13 27 -26 48 -30 47 -3 -1 -34 29 -69 68 -133 145 -187 176 -325
186 -49 3 -82 6 -72 7 9 1 17 6 17 11 0 14 -28 21 -73 19 l-42 -1 45 -6 c43
-7 44 -7 20 -18 -14 -6 -45 -16 -70 -22 -25 -7 -54 -15 -65 -18 -18 -6 -19 -5
-5 12 8 10 28 24 45 31 16 7 24 13 17 14 -7 0 -27 -7 -43 -16 -29 -14 -30 -14
-28 3 5 29 -11 94 -21 88 -6 -3 -7 0 -5 8 8 20 -32 65 -93 104 -29 19 -70 51
-90 70 -119 113 -347 290 -422 327 -25 13 24 -26 101 -79 40 -27 89 -65 108
-83 20 -18 55 -47 79 -63 23 -17 42 -34 42 -39 0 -5 9 -12 20 -15 11 -4 18
-10 15 -14 -2 -5 7 -17 20 -27 29 -22 29 -23 10 -48 -14 -19 -15 -18 -52 7
-21 14 -62 48 -91 75 -29 28 -79 70 -110 94 -31 24 -59 45 -62 48 -46 51 -400
242 -507 274 -96 29 -394 66 -530 66 -119 0 -132 -2 -183 -28z m1540 -566 c0
-2 -7 -7 -16 -10 -8 -3 -12 -2 -9 4 6 10 25 14 25 6z m117 -30 c0 -6 -10 -11
-23 -11 -15 0 -19 4 -13 11 5 6 15 11 22 11 8 0 14 -5 14 -11z m-187 -28 c0 6
4 12 10 12 5 0 7 -7 3 -15 -3 -9 -11 -14 -17 -12 -6 2 -16 -3 -22 -11 -9 -12
-13 -12 -19 -2 -5 8 -4 11 3 6 6 -3 14 3 17 15 6 17 9 19 16 8 6 -10 9 -11 9
-1z m230 -3 c5 3 14 -5 20 -17 9 -20 9 -21 -2 -7 -13 16 -19 19 -39 19 -5 0
-7 5 -3 12 6 9 9 9 12 0 2 -7 8 -10 12 -7z m-95 -20 c16 -13 27 -26 25 -29 -3
-2 -20 9 -38 25 -39 35 -29 38 13 4z m66 -22 c-12 -20 -14 -14 -5 12 4 9 9 14
11 11 3 -2 0 -13 -6 -23z m86 -65 c-3 -8 -6 -5 -6 6 -1 11 2 17 5 13 3 -3 4
-12 1 -19z m-162 -49 c-9 -17 -19 -28 -22 -25 -6 6 23 56 32 56 3 0 -2 -14
-10 -31z m-35 -79 c-5 -22 -8 -27 -9 -13 -1 21 9 56 14 51 2 -2 0 -19 -5 -38z
m272 -90 c32 -17 58 -41 69 -65 9 -17 8 -18 -3 -4 -7 9 -21 15 -30 13 -10 -1
-19 7 -22 22 -4 14 -11 22 -17 18 -6 -3 -8 -12 -5 -20 7 -19 3 -18 -24 6 -13
11 -31 20 -41 20 -24 0 -33 17 -12 23 25 6 57 1 85 -13z m-111 -18 c-7 -2 -18
1 -23 6 -8 8 -4 9 13 5 13 -4 18 -8 10 -11z m524 -32 c3 -5 1 -10 -4 -10 -6 0
-11 5 -11 10 0 6 2 10 4 10 3 0 8 -4 11 -10z m-1171 -53 c8 -7 16 -24 20 -37
7 -24 6 -24 -11 3 -10 15 -21 27 -25 27 -5 0 -8 5 -8 10 0 14 9 13 24 -3z
m644 -42 c-6 -14 -13 -23 -15 -21 -5 5 15 46 22 46 3 0 -1 -11 -7 -25z m159
-52 c-3 -10 -5 -2 -5 17 0 19 2 27 5 18 2 -10 2 -26 0 -35z m623 7 c0 -5 -5
-10 -11 -10 -5 0 -7 5 -4 10 3 6 8 10 11 10 2 0 4 -4 4 -10z m-1485 -21 c11
-17 -1 -21 -15 -4 -8 9 -8 15 -2 15 6 0 14 -5 17 -11z m-2125 -41 c0 -13 -23
-5 -28 10 -2 7 2 10 12 6 9 -3 16 -11 16 -16z m-23 -34 c-3 -3 -12 -4 -19 -1
-8 3 -5 6 6 6 11 1 17 -2 13 -5z m1740 -36 c-3 -8 -6 -5 -6 6 -1 11 2 17 5 13
3 -3 4 -12 1 -19z m-552 -228 c3 -5 1 -10 -4 -10 -6 0 -11 5 -11 10 0 6 2 10
4 10 3 0 8 -4 11 -10z m-1770 -785 c-8 -27 -14 -41 -14 -29 -1 21 19 88 24 82
2 -2 -3 -25 -10 -53z m30 -243 c0 -216 4 -284 18 -357 19 -93 72 -261 89 -282
13 -16 -34 -18 -62 -3 -16 8 -18 8 -14 -5 3 -8 9 -13 14 -10 4 2 17 -6 30 -20
22 -23 22 -24 1 -18 -11 3 -21 10 -21 15 0 5 -4 7 -9 4 -4 -3 -22 5 -40 18
-18 13 -28 27 -22 30 5 3 11 0 14 -6 2 -7 7 -10 11 -7 3 3 -7 23 -23 45 -68
92 -97 246 -88 459 7 145 9 154 52 270 14 39 31 85 36 103 5 17 11 32 12 32 1
0 2 -120 2 -268z m-59 147 c-8 -19 -15 -29 -15 -22 -1 18 19 67 25 61 3 -3 -2
-21 -10 -39z m4137 -399 c0 -184 -3 -230 -22 -319 -23 -108 -47 -170 -60 -155
-11 12 -31 119 -31 166 0 34 3 38 25 38 14 0 25 5 25 10 0 6 -11 10 -25 10
-18 0 -25 5 -25 20 0 52 34 259 62 375 28 117 32 127 41 100 5 -16 9 -127 10
-245z m-1913 196 c0 -15 -16 -30 -42 -39 -15 -5 -18 -1 -18 23 0 27 3 30 30
30 19 0 30 -5 30 -14z"/>
<path d="M1885 4450 c-10 -11 -16 -22 -13 -25 3 -3 13 6 22 20 20 30 16 32 -9
5z"/>
<path d="M2913 4444 c27 -14 51 -23 53 -21 5 5 -81 47 -93 47 -5 -1 14 -12 40
-26z"/>
<path d="M2995 4407 c33 -22 173 -97 182 -97 13 0 -37 31 -114 71 -77 40 -103
50 -68 26z"/>
<path d="M1861 4394 c0 -11 3 -14 6 -6 3 7 2 16 -1 19 -3 4 -6 -2 -5 -13z"/>
<path d="M1743 4383 c9 -2 25 -2 35 0 9 3 1 5 -18 5 -19 0 -27 -2 -17 -5z"/>
<path d="M1615 4370 c-25 -11 1 -11 35 0 20 6 21 8 5 8 -11 0 -29 -3 -40 -8z"/>
<path d="M1551 4349 c-13 -5 -21 -12 -18 -15 3 -3 18 1 34 10 31 17 21 20 -16
5z"/>
<path d="M1490 4320 c-8 -5 -10 -10 -5 -10 6 0 17 5 25 10 8 5 11 10 5 10 -5
0 -17 -5 -25 -10z"/>
<path d="M1439 4293 c-13 -17 -13 -17 6 -3 11 8 22 16 24 17 2 2 0 3 -6 3 -6
0 -17 -8 -24 -17z"/>
<path d="M1395 4270 c-3 -6 1 -7 9 -4 18 7 21 14 7 14 -6 0 -13 -4 -16 -10z"/>
<path d="M1330 4230 c-9 -6 -10 -10 -3 -10 6 0 15 5 18 10 8 12 4 12 -15 0z"/>
<path d="M1204 4131 c-99 -84 -227 -237 -326 -388 -79 -121 -155 -250 -176
-298 -18 -42 0 -20 33 40 59 107 108 187 133 218 82 96 106 131 87 123 -17 -6
-16 -3 5 21 14 15 31 34 39 41 8 6 11 12 7 12 -4 0 23 34 60 75 44 50 72 74
82 70 12 -4 12 -3 3 9 -10 12 -9 17 7 25 19 10 139 121 131 121 -2 0 -41 -31
-85 -69z"/>
<path d="M3523 3985 c0 -8 4 -12 9 -9 5 3 6 10 3 15 -9 13 -12 11 -12 -6z"/>
<path d="M4098 3723 c7 -3 16 -2 19 1 4 3 -2 6 -13 5 -11 0 -14 -3 -6 -6z"/>
<path d="M4048 3713 c6 -2 18 -2 25 0 6 3 1 5 -13 5 -14 0 -19 -2 -12 -5z"/>
<path d="M627 3299 c-84 -177 -110 -239 -105 -244 3 -3 13 14 23 37 27 65 64
144 106 233 21 43 36 81 34 83 -3 3 -29 -46 -58 -109z"/>
<path d="M1128 2171 l24 -21 -26 -10 c-18 -7 -26 -17 -26 -34 0 -29 15 -43 24
-21 3 9 19 15 41 15 47 0 165 -30 165 -41 0 -13 -49 -30 -74 -27 -18 3 -22 -4
-30 -45 -8 -39 -6 -60 9 -105 18 -53 70 -122 92 -122 6 0 -7 18 -29 40 -42 45
-47 65 -20 74 9 3 25 11 36 18 15 11 19 11 23 0 16 -42 78 -56 110 -24 10 9
17 16 16 14 -1 -2 10 -20 23 -39 l24 -36 -22 -24 c-12 -12 -17 -23 -12 -23 17
0 59 63 46 68 -19 6 -14 22 7 22 24 0 41 46 41 108 l0 45 53 -8 c28 -4 62 -8
74 -10 13 -1 29 -8 38 -15 21 -17 19 -5 -2 16 -17 17 -17 17 5 12 12 -3 20 -2
16 3 -3 5 1 9 8 9 34 1 -28 19 -147 44 -71 15 -179 40 -240 56 -60 16 -132 32
-160 36 -27 3 -57 12 -65 19 -27 22 -46 27 -22 6z m212 -141 c0 -13 -28 -25
-38 -16 -3 4 0 11 8 16 20 13 30 12 30 0z"/>
<path d="M1523 2133 c9 -2 23 -2 30 0 6 3 -1 5 -18 5 -16 0 -22 -2 -12 -5z"/>
<path d="M1588 2123 c7 -3 16 -2 19 1 4 3 -2 6 -13 5 -11 0 -14 -3 -6 -6z"/>
<path d="M1638 2113 c7 -3 16 -2 19 1 4 3 -2 6 -13 5 -11 0 -14 -3 -6 -6z"/>
<path d="M1100 2023 c0 -5 5 -15 10 -23 8 -12 10 -11 10 8 0 12 -4 22 -10 22
-5 0 -10 -3 -10 -7z"/>
<path d="M2160 1806 c0 -2 8 -10 18 -17 15 -13 16 -12 3 4 -13 16 -21 21 -21
13z"/>
<path d="M225 1760 c-4 -17 -5 -34 -2 -36 2 -3 7 10 11 27 8 42 0 50 -9 9z"/>
<path d="M200 1643 c-7 -37 -10 -81 -8 -98 4 -25 5 -23 7 12 0 23 6 65 12 93
6 28 9 54 6 56 -3 3 -10 -25 -17 -63z"/>
<path d="M2582 1515 c0 -16 2 -22 5 -12 2 9 2 23 0 30 -3 6 -5 -1 -5 -18z"/>
<path d="M2654 1431 c6 -9 5 -12 -5 -9 -8 3 -25 0 -39 -7 -43 -21 -117 -26
-162 -10 l-42 14 29 -25 c41 -34 104 -64 138 -64 20 0 26 -4 21 -12 -4 -7 3
-3 16 10 21 22 27 23 104 17 44 -3 87 -2 94 3 12 8 -4 18 -88 52 -14 5 -36 18
-50 27 -15 12 -21 13 -16 4z"/>
<path d="M2572 1265 c0 -11 3 -29 8 -40 11 -25 11 1 0 35 -6 20 -8 21 -8 5z"/>
<path d="M2588 1126 c-24 -38 -26 -47 -17 -79 14 -51 19 -46 13 11 -5 42 -3
50 25 80 16 17 25 32 18 32 -7 -1 -24 -20 -39 -44z"/>
<path d="M2660 1153 c8 -3 19 -11 23 -17 6 -7 7 -6 4 4 -2 8 -12 16 -23 17
-13 2 -15 1 -4 -4z"/>
<path d="M2255 1143 c-11 -3 -24 -9 -29 -14 -5 -5 6 -4 24 1 42 12 94 -4 109
-34 7 -15 10 -17 10 -5 1 8 -8 25 -19 37 -20 21 -49 26 -95 15z"/>
<path d="M4260 1131 c36 -68 -16 -140 -105 -143 -19 -1 -35 -3 -35 -4 0 -2 13
-10 30 -19 82 -43 170 2 170 87 0 35 -6 50 -28 71 -33 32 -47 35 -32 8z"/>
<path d="M1761 1056 c2 -2 22 -6 44 -9 28 -5 34 -4 20 3 -19 8 -73 14 -64 6z"/>
<path d="M2596 978 c4 -16 -2 -45 -15 -73 -20 -44 -25 -48 -131 -97 -60 -29
-108 -53 -106 -55 2 -2 48 16 102 42 54 25 102 44 107 42 5 -1 21 -25 36 -52
l27 -49 -18 -100 c-10 -56 -24 -137 -32 -180 -14 -80 -14 -80 -83 -145 -38
-36 -112 -96 -164 -134 -52 -37 -112 -81 -134 -97 -22 -16 -58 -32 -80 -36
-49 -7 -55 -11 -55 -31 0 -11 3 -13 13 -5 6 6 35 19 62 29 78 30 275 175 379
278 83 83 156 199 155 244 l-1 36 -7 -36 c-4 -20 -17 -50 -29 -66 -12 -17 -26
-41 -32 -54 -9 -22 -10 -22 -6 6 3 17 10 72 17 123 l12 93 30 -3 c25 -2 37
-13 64 -58 18 -30 49 -73 69 -95 33 -36 35 -42 29 -83 -4 -25 -9 -52 -12 -61
-4 -14 -3 -14 6 -1 5 8 13 31 16 52 l7 37 25 -24 c24 -22 26 -27 20 -89 -8
-82 -37 -181 -77 -264 -33 -68 -34 -72 -21 -72 4 0 29 53 55 117 37 95 47 135
52 204 l7 86 -43 47 -43 46 34 0 c25 0 45 -11 77 -40 24 -22 47 -40 52 -40 5
0 23 -12 41 -27 18 -15 30 -21 27 -13 -2 8 -22 25 -42 36 -21 12 -58 40 -83
63 -35 32 -50 40 -69 35 -34 -9 -68 17 -100 73 -36 63 -54 83 -73 83 -27 0
-44 17 -37 36 6 15 11 13 41 -16 19 -19 35 -29 35 -23 0 6 -11 18 -25 27 -14
9 -25 21 -25 27 0 6 -13 27 -30 45 -40 47 -46 75 -25 140 13 43 15 61 6 77
-10 20 -10 20 -5 -5z"/>
<path d="M1490 916 c0 -2 8 -10 18 -17 15 -13 16 -12 3 4 -13 16 -21 21 -21
13z"/>
<path d="M2274 725 c-10 -8 -14 -14 -9 -14 6 0 19 6 29 14 11 8 15 15 10 15
-6 0 -19 -7 -30 -15z"/>
<path d="M1807 715 c3 -9 7 -14 10 -11 2 2 38 -11 78 -30 41 -19 82 -34 92
-33 12 0 10 3 -7 8 -14 5 -59 24 -100 45 -41 20 -76 36 -77 36 -1 0 0 -7 4
-15z"/>
<path d="M1785 664 l-30 -13 30 6 c32 6 41 11 34 17 -2 2 -17 -2 -34 -10z"/>
<path d="M2720 633 c19 -25 107 -103 115 -103 2 0 -25 29 -59 65 -64 66 -95
87 -56 38z"/>
<path d="M2068 643 c7 -3 16 -2 19 1 4 3 -2 6 -13 5 -11 0 -14 -3 -6 -6z"/>
<path d="M1788 575 c-16 -35 -27 -79 -27 -97 1 -32 2 -32 9 7 4 22 17 62 29
89 12 27 20 53 19 57 -2 4 -15 -21 -30 -56z"/>
<path d="M1699 573 c-2 -4 -29 -21 -59 -37 -53 -28 -144 -89 -165 -110 -13
-13 41 20 80 49 39 29 112 64 119 57 3 -3 3 -24 1 -46 -4 -32 -1 -27 14 24 11
36 18 66 16 68 -1 2 -5 0 -6 -5z"/>
<path d="M1815 508 c-3 -7 -6 -51 -7 -98 l-3 -85 -14 58 c-23 93 -24 57 -2
-48 19 -85 85 -245 96 -233 3 2 -12 35 -31 72 -36 67 -37 71 -35 175 1 58 4
121 7 139 6 31 -2 45 -11 20z"/>
<path d="M864 460 c-12 -5 -25 -13 -28 -19 -4 -6 9 -4 28 4 44 19 89 19 124 1
30 -15 144 -36 188 -35 16 1 -10 7 -58 14 -48 8 -101 21 -117 30 -32 16 -103
19 -137 5z"/>
<path d="M1662 415 c0 -16 2 -22 5 -12 2 9 2 23 0 30 -3 6 -5 -1 -5 -18z"/>
<path d="M1418 423 c6 -2 18 -2 25 0 6 3 1 5 -13 5 -14 0 -19 -2 -12 -5z"/>
<path d="M1353 413 c9 -2 23 -2 30 0 6 3 -1 5 -18 5 -16 0 -22 -2 -12 -5z"/>
<path d="M707 364 c-37 -26 -65 -49 -63 -52 5 -4 86 53 131 90 26 22 -9 3 -68
-38z"/>
<path d="M946 397 c3 -10 9 -15 12 -12 3 3 0 11 -7 18 -10 9 -11 8 -5 -6z"/>
<path d="M1238 403 c17 -2 47 -2 65 0 17 2 3 4 -33 4 -36 0 -50 -2 -32 -4z"/>
<path d="M1641 243 c-7 -76 -14 -163 -16 -193 -4 -52 -4 -52 5 -15 5 22 10 58
11 80 2 23 5 7 9 -40 3 -51 6 -11 6 113 0 105 -1 192 -2 192 0 0 -7 -62 -13
-137z"/>
<path d="M2760 253 c-13 -49 -36 -124 -52 -167 -16 -43 -26 -81 -24 -84 3 -3
9 6 14 19 52 139 103 319 90 319 -2 0 -14 -39 -28 -87z"/>
<path d="M614 278 l-19 -23 23 19 c21 18 27 26 19 26 -2 0 -12 -10 -23 -22z"/>
<path d="M3604 256 c11 -9 24 -16 30 -16 12 0 7 5 -24 19 -24 11 -24 11 -6 -3z"/>
<path d="M3657 229 c7 -7 15 -10 18 -7 3 3 -2 9 -12 12 -14 6 -15 5 -6 -5z"/>
<path d="M3705 206 c11 -7 31 -16 45 -20 19 -5 16 -2 -10 13 -40 23 -65 28
-35 7z"/>
<path d="M535 169 c-4 -6 -5 -12 -2 -15 2 -3 7 2 10 11 7 17 1 20 -8 4z"/>
<path d="M3795 168 c26 -20 199 -78 228 -77 12 0 0 6 -28 14 -42 11 -95 30
-200 70 l-20 7 20 -14z"/>
<path d="M3082 85 c0 -16 2 -22 5 -12 2 9 2 23 0 30 -3 6 -5 -1 -5 -18z"/>
<path d="M1935 63 c13 -14 37 -24 65 -27 l45 -6 -45 11 c-25 6 -54 18 -65 27
l-20 16 20 -21z"/>
<path d="M4112 50 c25 -16 49 -34 53 -39 3 -6 11 -11 16 -11 6 0 4 6 -4 14
-23 23 -89 66 -101 66 -6 0 10 -14 36 -30z"/>
<path d="M482 45 c-17 -37 -14 -45 4 -12 9 16 14 31 11 33 -2 2 -9 -7 -15 -21z"/>
<path d="M1898 40 c5 -35 8 -37 15 -10 3 10 -1 24 -7 29 -10 8 -11 3 -8 -19z"/>
<path d="M1830 30 c-14 -10 -22 -21 -19 -24 3 -3 16 5 29 19 28 30 24 32 -10
5z"/>
<path d="M3092 20 c0 -14 2 -19 5 -12 2 6 2 18 0 25 -3 6 -5 1 -5 -13z"/>
</g>
</svg>
